<svg width="15" height="11" viewBox="0 0 15 11" fill="none" xmlns="http://www.w3.org/2000/svg">
<path d="M0.708418 5.56492C0.652858 5.41525 0.652858 5.2506 0.708418 5.10092C1.24955 3.78883 2.1681 2.66695 3.3476 1.87752C4.5271 1.0881 5.91445 0.666668 7.33375 0.666668C8.75306 0.666668 10.1404 1.0881 11.3199 1.87752C12.4994 2.66695 13.418 3.78883 13.9591 5.10092C14.0146 5.2506 14.0146 5.41525 13.9591 5.56492C13.418 6.87702 12.4994 7.9989 11.3199 8.78833C10.1404 9.57775 8.75306 9.99918 7.33375 9.99918C5.91445 9.99918 4.5271 9.57775 3.3476 8.78833C2.1681 7.9989 1.24955 6.87702 0.708418 5.56492Z" stroke="#71717B" stroke-width="1.33333" stroke-linecap="round" stroke-linejoin="round"/>
</svg>
